<?xml version="1.0" encoding="utf-8"?>
<!-- Generator: Adobe Illustrator 23.1.0, SVG Export Plug-In . SVG Version: 6.00 Build 0)  -->
<svg version="1.1" id="Layer_1" xmlns="http://www.w3.org/2000/svg" xmlns:xlink="http://www.w3.org/1999/xlink" x="0px" y="0px"
	 viewBox="0 0 198.4 283.5" style="enable-background:new 0 0 198.4 283.5;" xml:space="preserve">
<style type="text/css">
	.st0{fill:#444BF7;}
	.st1{fill:#818AF2;}
	.st2{fill:#FFFFFF;}
</style>
<path class="st0" d="M99.7,108.7c25.8,0,46.8-21,46.8-46.8s-21-46.8-46.8-46.8s-46.8,21-46.8,46.8S73.9,108.7,99.7,108.7z"/>
<g>
	<path class="st1" d="M97.8,264.1h50.1c0-27.7-22.4-50.1-50.1-50.1L97.8,264.1z"/>
	<path class="st1" d="M99.2,264.1V214c-27.7,0-50.1,22.4-50.1,50.1H99.2z"/>
	<path class="st1" d="M99.2,212.9h50.1c0-27.7-22.4-50.1-50.1-50.1L99.2,212.9z"/>
	<path class="st1" d="M99.7,212.9v-50.1c-27.7,0-50.1,22.4-50.1,50.1H99.7z"/>
</g>
<rect x="3.8" y="110.7" class="st2" width="190.9" height="50.1"/>
</svg>
