<?xml version="1.0" encoding="utf-8"?>
<!-- Generator: Adobe Illustrator 23.1.0, SVG Export Plug-In . SVG Version: 6.00 Build 0)  -->
<svg version="1.1" id="Layer_1" xmlns="http://www.w3.org/2000/svg" xmlns:xlink="http://www.w3.org/1999/xlink" x="0px" y="0px"
	 viewBox="0 0 146 29" style="enable-background:new 0 0 146 29;" xml:space="preserve">
<style type="text/css">
	.st0{fill:#444BF7;}
	.st1{fill:#FFFFFF;}
</style>
<path class="st0" d="M29,29V0C13,0,0,13,0,29H29z"/>
<path class="st1" d="M43.5,29c8,0,14.5-6.5,14.5-14.5C58,6.5,51.5,0,43.5,0S29,6.5,29,14.5C29,22.5,35.5,29,43.5,29z"/>
<path class="st1" d="M77,5.5l3.5,5.9h0.1l3.5-5.9h4.2L83,14.3l5.4,8.7h-4.2l-3.6-6h-0.1l-3.6,6h-4.2l5.5-8.7l-5.4-8.7H77z
	 M103.9,9.9L99.3,23h-4.1L90.6,9.9h3.8l2.7,9.4h0.1l2.7-9.4H103.9z M112.3,23.3c-2,0-3.6-0.6-4.8-1.8c-1.2-1.2-1.7-2.9-1.7-4.9
	c0-1.3,0.3-2.5,0.8-3.5c0.5-1,1.3-1.8,2.2-2.4c1-0.6,2.1-0.9,3.3-0.9c0.9,0,1.7,0.1,2.4,0.4c0.7,0.3,1.4,0.7,2,1.2
	c0.6,0.5,1,1.2,1.3,2.1c0.3,0.9,0.5,1.8,0.5,2.9v1h-8.9v0c0,1,0.3,1.7,0.8,2.3c0.5,0.6,1.3,0.8,2.2,0.8c0.6,0,1.1-0.1,1.6-0.4
	c0.4-0.3,0.8-0.6,0.9-1.1l3.4,0.2c-0.3,1.2-0.9,2.2-2,2.9C115.3,22.9,113.9,23.3,112.3,23.3z M109.4,15.1h5.5c0-0.8-0.3-1.4-0.8-1.9
	c-0.5-0.5-1.1-0.8-1.9-0.8c-0.8,0-1.4,0.3-2,0.8C109.8,13.7,109.5,14.4,109.4,15.1z M125.4,15.4V23h-3.6V9.9h3.5v2.3h0.2
	c0.3-0.8,0.8-1.4,1.5-1.8c0.7-0.4,1.5-0.7,2.5-0.7c1.4,0,2.5,0.4,3.3,1.3c0.8,0.9,1.2,2.1,1.2,3.6V23h-3.6v-7.7
	c0-0.8-0.2-1.4-0.6-1.9c-0.4-0.5-1-0.7-1.7-0.7c-0.7,0-1.3,0.2-1.8,0.7C125.7,13.9,125.4,14.6,125.4,15.4z M144.8,9.9v2.7h-2.5V19
	c0,0.5,0.1,0.8,0.3,1c0.2,0.2,0.5,0.3,0.9,0.3c0.2,0,0.5,0,0.9-0.1l0.6,2.7c-0.6,0.2-1.3,0.3-2,0.3c-1.3,0.1-2.4-0.2-3.2-0.9
	c-0.8-0.6-1.2-1.6-1.2-2.8v-6.8h-1.8V9.9h1.8V6.8h3.6v3.1H144.8z"/>
</svg>
