<?xml version="1.0" encoding="utf-8"?>
<!-- Generator: Adobe Illustrator 23.1.0, SVG Export Plug-In . SVG Version: 6.00 Build 0)  -->
<svg version="1.1" id="Layer_1" xmlns="http://www.w3.org/2000/svg" xmlns:xlink="http://www.w3.org/1999/xlink" x="0px" y="0px"
	 viewBox="0 0 85 85" style="enable-background:new 0 0 85 85;" xml:space="preserve">
<style type="text/css">
	.st0{fill:#FFFFFF;}
	.st1{fill:#0029EB;}
</style>
<path class="st0" d="M68,78.8H20.1c-6.8,0-12.3-5.5-12.3-12.3V18.6c0-6.8,5.5-12.3,12.3-12.3H68c6.8,0,12.3,5.5,12.3,12.3v47.9
	C80.4,73.3,74.8,78.8,68,78.8z"/>
<g>
	<path class="st1" d="M43.3,59.1V42.8c-9,0-16.3,7.3-16.3,16.3H43.3z"/>
	<path class="st1" d="M59,59.1c0-9-7.3-16.3-16.3-16.3v16.3H59z"/>
	<path class="st1" d="M43.3,42.2V25.9c-9,0-16.3,7.3-16.3,16.3H43.3z"/>
	<path class="st1" d="M59,42.2c0-9-7.3-16.3-16.3-16.3v16.3H59z"/>
</g>
</svg>
