<svg width="1837" height="613" viewBox="0 0 1837 613" fill="none" xmlns="http://www.w3.org/2000/svg">
<g opacity="1">
<path d="M1428.38 0.189941H1326.33V102.24H1428.38V0.189941Z" fill="#FAFCFE"/>
<path d="M1326.33 0.189941H1224.28V102.24H1326.33V0.189941Z" fill="#FAFCFE"/>
<path d="M1224.29 0.189941H1122.24V102.24H1224.29V0.189941Z" fill="#FAFCFE"/>
<path d="M1122.24 0.189941H1020.19V102.24H1122.24V0.189941Z" fill="#FAFCFE"/>
<path d="M1020.19 0.189941H918.14V102.24H1020.19V0.189941Z" fill="#FAFCFE"/>
<path d="M918.14 0.189941H816.09V102.24H918.14V0.189941Z" fill="#FAFCFE"/>
<path d="M816.1 0.189941H714.05V102.24H816.1V0.189941Z" fill="#FAFCFE"/>
<path d="M714.05 0.189941H612V102.24H714.05V0.189941Z" fill="#FAFCFE"/>
<path d="M1224 0V102C1280.33 102 1326 56.3324 1326 0H1224Z" fill="#444BF7"/>
<path d="M714.05 0.189941H612C612 56.5499 657.69 102.24 714.05 102.24V0.189941Z" fill="#444BF7"/>
<path d="M1071.24 102.23C1099.42 102.23 1122.26 79.3875 1122.26 51.2099C1122.26 23.0324 1099.42 0.189941 1071.24 0.189941C1043.06 0.189941 1020.22 23.0324 1020.22 51.2099C1020.22 79.3875 1043.06 102.23 1071.24 102.23Z" fill="#444BF7"/>
<path d="M918.2 102.24V0.189941C861.84 0.189941 816.15 45.8799 816.15 102.24H918.2Z" fill="#011440"/>
<path d="M1224.28 102.24V0.189941C1167.92 0.189941 1122.23 45.8799 1122.23 102.24H1224.28Z" fill="#011440"/>
<path d="M1428 0H1326C1326 56.3324 1371.67 102 1428 102V0Z" fill="#011440"/>
<path d="M612 102.23V0.189941C612 28.3699 623.42 53.8799 641.89 72.3399C660.35 90.8099 685.86 102.23 714.04 102.23H612Z" fill="#011440"/>
<path d="M1020.19 102.23V0.189941C1020.19 28.3699 1008.77 53.8799 990.3 72.3399C971.84 90.8099 946.33 102.23 918.15 102.23H1020.19Z" fill="#011440"/>
<path d="M816.09 102.23V0.189941C816.09 28.3699 804.67 53.8799 786.2 72.3399C767.74 90.8099 742.23 102.23 714.05 102.23H816.09Z" fill="#011440"/>
<path d="M714.05 0.189941V102.24C770.41 102.24 816.1 56.5499 816.1 0.189941H714.05Z" fill="#C8D4FF"/>
<path d="M918.14 0.189941V102.24C974.5 102.24 1020.19 56.5499 1020.19 0.189941H918.14Z" fill="#C8D4FF"/>
<path d="M1632.38 102H1530.33V204.05H1632.38V102Z" fill="#FAFCFE"/>
<path d="M1530.33 102H1428.28V204.05H1530.33V102Z" fill="#FAFCFE"/>
<path d="M1428.29 102H1326.24V204.05H1428.29V102Z" fill="#FAFCFE"/>
<path d="M1326.24 102H1224.19V204.05H1326.24V102Z" fill="#FAFCFE"/>
<path d="M1224.19 102H1122.14V204.05H1224.19V102Z" fill="#FAFCFE"/>
<path d="M1122.14 102H1020.09V204.05H1122.14V102Z" fill="#FAFCFE"/>
<path d="M1020.1 102H918.05V204.05H1020.1V102Z" fill="#FAFCFE"/>
<path d="M918.05 102H816V204.05H918.05V102Z" fill="#FAFCFE"/>
<path d="M1530.33 204.05H1428.28V306.1H1530.33V204.05Z" fill="#FAFCFE"/>
<path d="M1428.29 204.05H1326.24V306.1H1428.29V204.05Z" fill="#FAFCFE"/>
<path d="M1326.24 204.05H1224.19V306.1H1326.24V204.05Z" fill="#FAFCFE"/>
<path d="M1224.19 204.05H1122.14V306.1H1224.19V204.05Z" fill="#FAFCFE"/>
<path d="M1122.14 204.05H1020.09V306.1H1122.14V204.05Z" fill="#FAFCFE"/>
<path d="M1020.1 204.05H918.05V306.1H1020.1V204.05Z" fill="#FAFCFE"/>
<path d="M918.05 204.05H816V306.1H918.05V204.05Z" fill="#FAFCFE"/>
<path d="M1632.38 204.05H1530.33V306.1H1632.38V204.05Z" fill="#FAFCFE"/>
<path d="M1632.38 306.09H1530.33V408.14H1632.38V306.09Z" fill="#FAFCFE"/>
<path d="M1530.33 306.09H1428.28V408.14H1530.33V306.09Z" fill="#FAFCFE"/>
<path d="M1428.29 306.09H1326.24V408.14H1428.29V306.09Z" fill="#FAFCFE"/>
<path d="M1326.24 306.09H1224.19V408.14H1326.24V306.09Z" fill="#FAFCFE"/>
<path d="M1224.19 306.09H1122.14V408.14H1224.19V306.09Z" fill="#FAFCFE"/>
<path d="M1122.14 306.09H1020.09V408.14H1122.14V306.09Z" fill="#FAFCFE"/>
<path d="M1020.1 306.09H918.05V408.14H1020.1V306.09Z" fill="#FAFCFE"/>
<path d="M918.05 306.09H816V408.14H918.05V306.09Z" fill="#FAFCFE"/>
<path d="M1530.33 408.14H1428.28V510.19H1530.33V408.14Z" fill="#FAFCFE"/>
<path d="M1428.29 408.14H1326.24V510.19H1428.29V408.14Z" fill="#FAFCFE"/>
<path d="M1326.24 408.14H1224.19V510.19H1326.24V408.14Z" fill="#FAFCFE"/>
<path d="M1224.19 408.14H1122.14V510.19H1224.19V408.14Z" fill="#FAFCFE"/>
<path d="M1122.14 408.14H1020.09V510.19H1122.14V408.14Z" fill="#FAFCFE"/>
<path d="M1020.1 408.14H918.05V510.19H1020.1V408.14Z" fill="#FAFCFE"/>
<path d="M918.05 408.14H816V510.19H918.05V408.14Z" fill="#FAFCFE"/>
<path d="M1632.38 408.14H1530.33V510.19H1632.38V408.14Z" fill="#FAFCFE"/>
<path d="M1632.38 510.19H1530.33V612.24H1632.38V510.19Z" fill="#FAFCFE"/>
<path d="M1530.33 510.19H1428.28V612.24H1530.33V510.19Z" fill="#FAFCFE"/>
<path d="M1428.29 510.19H1326.24V612.24H1428.29V510.19Z" fill="#FAFCFE"/>
<path d="M1326.24 510.19H1224.19V612.24H1326.24V510.19Z" fill="#FAFCFE"/>
<path d="M1224.19 510.19H1122.14V612.24H1224.19V510.19Z" fill="#FAFCFE"/>
<path d="M1122.14 510.19H1020.09V612.24H1122.14V510.19Z" fill="#FAFCFE"/>
<path d="M1020.1 510.19H918.05V612.24H1020.1V510.19Z" fill="#FAFCFE"/>
<path d="M918.05 510.19H816V612.24H918.05V510.19Z" fill="#FAFCFE"/>
<path d="M1428 510V612C1484.33 612 1530 566.332 1530 510H1428Z" fill="#444BF7"/>
<path d="M1428 204V102C1371.67 102 1326 147.668 1326 204H1428Z" fill="#444BF7"/>
<path d="M1224.19 306.09H1326.24C1326.24 249.73 1280.55 204.04 1224.19 204.04V306.09Z" fill="#444BF7"/>
<path d="M918 204H1020C1019.99 147.668 974.332 102 918 102V204Z" fill="#444BF7"/>
<path d="M1122 408H1224C1224 351.668 1178.33 306 1122 306V408Z" fill="#444BF7"/>
<path d="M1530.33 204.05H1632.38C1632.38 147.69 1586.69 102 1530.33 102V204.05Z" fill="#444BF7"/>
<path d="M1020.09 306.09H1122.14C1122.14 249.73 1076.45 204.04 1020.09 204.04V306.09Z" fill="#444BF7"/>
<path d="M1428.01 306.09H1325.97C1325.97 362.45 1371.66 408.14 1428.02 408.14L1428.01 306.09Z" fill="#444BF7"/>
<path d="M1122.14 408.14H1020.09C1020.09 464.5 1065.78 510.19 1122.14 510.19V408.14Z" fill="#444BF7"/>
<path d="M1224 408H1122C1122 464.332 1167.67 510 1224 510V408Z" fill="#444BF7"/>
<path d="M918.05 510.19H816C816 566.55 861.69 612.24 918.05 612.24V510.19Z" fill="#444BF7"/>
<path d="M918.05 306.09H816C816 362.45 861.69 408.14 918.05 408.14V306.09Z" fill="#444BF7"/>
<path d="M918 102H816C816 158.332 861.668 204 918 204V102Z" fill="#444BF7"/>
<path d="M1275.24 612.23C1303.42 612.23 1326.26 589.387 1326.26 561.21C1326.26 533.032 1303.42 510.19 1275.24 510.19C1247.06 510.19 1224.22 533.032 1224.22 561.21C1224.22 589.387 1247.06 612.23 1275.24 612.23Z" fill="#444BF7"/>
<path d="M1325.69 306.1V408.14C1325.69 379.96 1314.27 354.45 1295.8 335.99C1277.34 317.52 1251.83 306.1 1223.65 306.1H1325.69V306.1Z" fill="#444BF7"/>
<path d="M1632 408V510C1632 481.831 1620.58 456.331 1602.12 437.878C1583.67 419.416 1558.17 408 1530 408H1632Z" fill="#444BF7"/>
<path d="M918.05 204.05V306.1C974.41 306.1 1020.1 260.41 1020.1 204.05H918.05Z" fill="#011440"/>
<path d="M1122.2 612.24V510.19C1065.84 510.19 1020.15 555.88 1020.15 612.24H1122.2Z" fill="#011440"/>
<path d="M1428 306V408C1484.33 408 1530 362.332 1530 306H1428Z" fill="#011440"/>
<path d="M1122.2 408.14V306.09C1065.84 306.09 1020.15 351.78 1020.15 408.14H1122.2Z" fill="#011440"/>
<path d="M1428.28 612.24V510.19C1371.92 510.19 1326.23 555.88 1326.23 612.24H1428.28Z" fill="#011440"/>
<path d="M1428.28 204.05H1530.33C1530.33 147.69 1484.64 102 1428.28 102V204.05Z" fill="#011440"/>
<path d="M1530 510H1632C1632 453.668 1586.33 408 1530 408V510Z" fill="#011440"/>
<path d="M1530 204V306C1586.33 306 1632 260.332 1632 204H1530Z" fill="#011440"/>
<path d="M918.05 408.14H1020.1C1020.1 351.78 974.41 306.09 918.05 306.09V408.14Z" fill="#011440"/>
<path d="M918.05 510.19H1020.1C1020.1 453.83 974.41 408.14 918.05 408.14V510.19Z" fill="#011440"/>
<path d="M1224 408H1326C1326 351.668 1280.33 306 1224 306V408Z" fill="#011440"/>
<path d="M1632 510H1530C1530 566.332 1575.67 612 1632 612V510Z" fill="#011440"/>
<path d="M1428.28 408.14H1326.24C1326.24 464.5 1371.93 510.19 1428.29 510.19L1428.28 408.14Z" fill="#011440"/>
<path d="M1173.17 204.04C1201.35 204.04 1224.19 181.198 1224.19 153.02C1224.19 124.842 1201.35 102 1173.17 102C1144.99 102 1122.15 124.842 1122.15 153.02C1122.15 181.198 1144.99 204.04 1173.17 204.04Z" fill="#011440"/>
<path d="M1020.09 102.01V204.05C1020.09 175.87 1008.67 150.36 990.2 131.9C971.74 113.43 946.23 102.01 918.05 102.01H1020.09V102.01Z" fill="#011440"/>
<path d="M1224.19 306.1V408.14C1224.19 379.96 1212.77 354.45 1194.3 335.99C1175.84 317.52 1150.33 306.1 1122.15 306.1H1224.19V306.1Z" fill="#011440"/>
<path d="M1326.26 204.05V306.09C1326.26 277.91 1314.84 252.4 1296.37 233.94C1277.91 215.47 1252.4 204.05 1224.22 204.05H1326.26Z" fill="#011440"/>
<path d="M1530 408V510C1530 481.831 1518.58 456.331 1500.12 437.878C1481.67 419.416 1456.17 408 1428 408H1530Z" fill="#011440"/>
<path d="M1326 102H1428C1399.83 102 1374.33 113.416 1355.88 131.878C1337.42 150.331 1326 175.831 1326 204V102Z" fill="#011440"/>
<path d="M816 612.23V510.19C816 538.37 827.42 563.88 845.89 582.34C864.35 600.81 889.86 612.23 918.04 612.23H816Z" fill="#011440"/>
<path d="M1224.19 612.23V510.19C1224.19 538.37 1212.77 563.88 1194.3 582.34C1175.84 600.81 1150.33 612.23 1122.15 612.23H1224.19Z" fill="#011440"/>
<path d="M1020.09 612.23V510.19C1020.09 538.37 1008.67 563.88 990.2 582.34C971.74 600.81 946.23 612.23 918.05 612.23H1020.09Z" fill="#011440"/>
<path d="M918.05 306.09V204.05C861.69 204.05 816 249.74 816 306.09H918.05Z" fill="#C8D4FF"/>
<path d="M918.05 510.19V612.24C974.41 612.24 1020.1 566.55 1020.1 510.19H918.05Z" fill="#C8D4FF"/>
<path d="M1122.14 510.19V612.24C1178.5 612.24 1224.19 566.55 1224.19 510.19H1122.14Z" fill="#C8D4FF"/>
<path d="M1224.22 408.14V510.19C1280.58 510.19 1326.27 464.5 1326.27 408.14H1224.22Z" fill="#C8D4FF"/>
<path d="M1224.19 306.09V204.05C1167.83 204.05 1122.14 249.74 1122.14 306.1L1224.19 306.09Z" fill="#C8D4FF"/>
<path d="M1530.33 306.09V204.05C1473.97 204.05 1428.28 249.74 1428.28 306.1L1530.33 306.09Z" fill="#C8D4FF"/>
<path d="M1428.28 510.19H1530.33C1530.33 453.83 1484.64 408.14 1428.28 408.14V510.19Z" fill="#C8D4FF"/>
<path d="M1326.24 306.09H1428.29C1428.29 249.73 1382.6 204.04 1326.24 204.04V306.09Z" fill="#C8D4FF"/>
<path d="M1020.15 204.05H1122.2C1122.2 147.69 1076.51 102 1020.15 102V204.05Z" fill="#C8D4FF"/>
<path d="M1224.19 102V204.05C1280.55 204.05 1326.24 158.36 1326.24 102H1224.19Z" fill="#C8D4FF"/>
<path d="M1530 408H1632C1632 351.668 1586.33 306 1530 306V408Z" fill="#C8D4FF"/>
<path d="M867.02 510.19C895.198 510.19 918.04 487.347 918.04 459.17C918.04 430.992 895.198 408.15 867.02 408.15C838.842 408.15 816 430.992 816 459.17C816 487.347 838.842 510.19 867.02 510.19Z" fill="#C8D4FF"/>
<path d="M1020.09 408.15V510.19C1020.09 482.01 1008.67 456.5 990.2 438.04C971.74 419.57 946.23 408.15 918.05 408.15H1020.09Z" fill="#C8D4FF"/>
<path d="M1122.2 204.05V306.09C1122.2 277.91 1110.78 252.4 1092.31 233.94C1073.85 215.47 1048.34 204.05 1020.16 204.05H1122.2Z" fill="#C8D4FF"/>
<path d="M1632.37 102.01V204.05C1632.37 175.87 1620.95 150.36 1602.48 131.9C1584.02 113.43 1558.51 102.01 1530.33 102.01H1632.37V102.01Z" fill="#C8D4FF"/>
<path d="M1020.12 306.09V204.05C1020.12 232.23 1008.7 257.74 990.23 276.2C971.77 294.67 946.26 306.09 918.08 306.09H1020.12V306.09Z" fill="#C8D4FF"/>
<path d="M1836.19 0.189941H1734.14V102.24H1836.19V0.189941Z" fill="#FAFCFE"/>
<path d="M1734.14 0.189941H1632.09V102.24H1734.14V0.189941Z" fill="#FAFCFE"/>
<path d="M1632.1 0.189941H1530.05V102.24H1632.1V0.189941Z" fill="#FAFCFE"/>
<path d="M1530.05 0.189941H1428V102.24H1530.05V0.189941Z" fill="#FAFCFE"/>
<path d="M1530.05 0.189941H1428C1428 56.5499 1473.69 102.24 1530.05 102.24V0.189941Z" fill="#444BF7"/>
<path d="M1734.2 102.24V0.189941C1677.84 0.189941 1632.15 45.8799 1632.15 102.24H1734.2Z" fill="#011440"/>
<path d="M1428 102.23V0.189941C1428 28.3699 1439.42 53.8799 1457.89 72.3399C1476.35 90.8099 1501.86 102.23 1530.04 102.23H1428Z" fill="#011440"/>
<path d="M1836.19 102.23V0.189941C1836.19 28.3699 1824.77 53.8799 1806.3 72.3399C1787.84 90.8099 1762.33 102.23 1734.15 102.23H1836.19Z" fill="#011440"/>
<path d="M1632.09 102.23V0.189941C1632.09 28.3699 1620.67 53.8799 1602.2 72.3399C1583.74 90.8099 1558.23 102.23 1530.05 102.23H1632.09Z" fill="#011440"/>
<path d="M1530.05 0.189941V102.24C1586.41 102.24 1632.1 56.5499 1632.1 0.189941H1530.05Z" fill="#C8D4FF"/>
<path d="M1734.14 0.189941V102.24C1790.5 102.24 1836.19 56.5499 1836.19 0.189941H1734.14Z" fill="#C8D4FF"/>
<path d="M1836.1 102H1734.05V204.05H1836.1V102Z" fill="#FAFCFE"/>
<path d="M1734.05 102H1632V204.05H1734.05V102Z" fill="#FAFCFE"/>
<path d="M1836.1 204.05H1734.05V306.1H1836.1V204.05Z" fill="#FAFCFE"/>
<path d="M1734.05 204.05H1632V306.1H1734.05V204.05Z" fill="#FAFCFE"/>
<path d="M1836.1 306.09H1734.05V408.14H1836.1V306.09Z" fill="#FAFCFE"/>
<path d="M1734.05 306.09H1632V408.14H1734.05V306.09Z" fill="#FAFCFE"/>
<path d="M1836.1 408.14H1734.05V510.19H1836.1V408.14Z" fill="#FAFCFE"/>
<path d="M1734.05 408.14H1632V510.19H1734.05V408.14Z" fill="#FAFCFE"/>
<path d="M1836.1 510.19H1734.05V612.24H1836.1V510.19Z" fill="#FAFCFE"/>
<path d="M1734.05 510.19H1632V612.24H1734.05V510.19Z" fill="#FAFCFE"/>
<path d="M1734 204H1836C1835.99 147.668 1790.33 102 1734 102V204Z" fill="#444BF7"/>
<path d="M1734.05 510.19H1632C1632 566.55 1677.69 612.24 1734.05 612.24V510.19Z" fill="#444BF7"/>
<path d="M1734.05 306.09H1632C1632 362.45 1677.69 408.14 1734.05 408.14V306.09Z" fill="#444BF7"/>
<path d="M1734 102H1632C1632 158.332 1677.67 204 1734 204V102Z" fill="#444BF7"/>
<path d="M1734.05 204.05V306.1C1790.41 306.1 1836.1 260.41 1836.1 204.05H1734.05Z" fill="#011440"/>
<path d="M1734.05 408.14H1836.1C1836.1 351.78 1790.41 306.09 1734.05 306.09V408.14Z" fill="#011440"/>
<path d="M1734.05 510.19H1836.1C1836.1 453.83 1790.41 408.14 1734.05 408.14V510.19Z" fill="#011440"/>
<path d="M1836.09 102.01V204.05C1836.09 175.87 1824.67 150.36 1806.2 131.9C1787.74 113.43 1762.23 102.01 1734.05 102.01H1836.09V102.01Z" fill="#011440"/>
<path d="M1632 612.23V510.19C1632 538.37 1643.42 563.88 1661.89 582.34C1680.35 600.81 1705.86 612.23 1734.04 612.23H1632Z" fill="#011440"/>
<path d="M1836.09 612.23V510.19C1836.09 538.37 1824.67 563.88 1806.2 582.34C1787.74 600.81 1762.23 612.23 1734.05 612.23H1836.09Z" fill="#011440"/>
<path d="M1734.05 306.09V204.05C1677.69 204.05 1632 249.74 1632 306.09H1734.05Z" fill="#C8D4FF"/>
<path d="M1734.05 510.19V612.24C1790.41 612.24 1836.1 566.55 1836.1 510.19H1734.05Z" fill="#C8D4FF"/>
<path d="M1683.02 510.19C1711.2 510.19 1734.04 487.347 1734.04 459.17C1734.04 430.992 1711.2 408.15 1683.02 408.15C1654.84 408.15 1632 430.992 1632 459.17C1632 487.347 1654.84 510.19 1683.02 510.19Z" fill="#C8D4FF"/>
<path d="M1836.09 408.15V510.19C1836.09 482.01 1824.67 456.5 1806.2 438.04C1787.74 419.57 1762.23 408.15 1734.05 408.15H1836.09Z" fill="#C8D4FF"/>
<path d="M1836.12 306.09V204.05C1836.12 232.23 1824.7 257.74 1806.23 276.2C1787.77 294.67 1762.26 306.09 1734.08 306.09H1836.12V306.09Z" fill="#C8D4FF"/>
<path d="M816.38 102H714.33V204.05H816.38V102Z" fill="#FAFCFE"/>
<path d="M714.33 102H612.28V204.05H714.33V102Z" fill="#FAFCFE"/>
<path d="M612.29 102H510.24V204.05H612.29V102Z" fill="#FAFCFE"/>
<path d="M510.24 102H408.19V204.05H510.24V102Z" fill="#FAFCFE"/>
<path d="M408.19 102H306.14V204.05H408.19V102Z" fill="#FAFCFE"/>
<path d="M306.14 102H204.09V204.05H306.14V102Z" fill="#FAFCFE"/>
<path d="M204.1 102H102.05V204.05H204.1V102Z" fill="#FAFCFE"/>
<path d="M102.05 102H0V204.05H102.05V102Z" fill="#FAFCFE"/>
<path d="M714.33 204.05H612.28V306.1H714.33V204.05Z" fill="#FAFCFE"/>
<path d="M612.29 204.05H510.24V306.1H612.29V204.05Z" fill="#FAFCFE"/>
<path d="M510.24 204.05H408.19V306.1H510.24V204.05Z" fill="#FAFCFE"/>
<path d="M408.19 204.05H306.14V306.1H408.19V204.05Z" fill="#FAFCFE"/>
<path d="M306.14 204.05H204.09V306.1H306.14V204.05Z" fill="#FAFCFE"/>
<path d="M204.1 204.05H102.05V306.1H204.1V204.05Z" fill="#FAFCFE"/>
<path d="M102.05 204.05H0V306.1H102.05V204.05Z" fill="#FAFCFE"/>
<path d="M816.38 204.05H714.33V306.1H816.38V204.05Z" fill="#FAFCFE"/>
<path d="M816.38 306.09H714.33V408.14H816.38V306.09Z" fill="#FAFCFE"/>
<path d="M714.33 306.09H612.28V408.14H714.33V306.09Z" fill="#FAFCFE"/>
<path d="M612.29 306.09H510.24V408.14H612.29V306.09Z" fill="#FAFCFE"/>
<path d="M510.24 306.09H408.19V408.14H510.24V306.09Z" fill="#FAFCFE"/>
<path d="M408.19 306.09H306.14V408.14H408.19V306.09Z" fill="#FAFCFE"/>
<path d="M306.14 306.09H204.09V408.14H306.14V306.09Z" fill="#FAFCFE"/>
<path d="M204.1 306.09H102.05V408.14H204.1V306.09Z" fill="#FAFCFE"/>
<path d="M102.05 306.09H0V408.14H102.05V306.09Z" fill="#FAFCFE"/>
<path d="M714.33 408.14H612.28V510.19H714.33V408.14Z" fill="#FAFCFE"/>
<path d="M612.29 408.14H510.24V510.19H612.29V408.14Z" fill="#FAFCFE"/>
<path d="M510.24 408.14H408.19V510.19H510.24V408.14Z" fill="#FAFCFE"/>
<path d="M408.19 408.14H306.14V510.19H408.19V408.14Z" fill="#FAFCFE"/>
<path d="M306.14 408.14H204.09V510.19H306.14V408.14Z" fill="#FAFCFE"/>
<path d="M204.1 408.14H102.05V510.19H204.1V408.14Z" fill="#FAFCFE"/>
<path d="M102.05 408.14H0V510.19H102.05V408.14Z" fill="#FAFCFE"/>
<path d="M816.38 408.14H714.33V510.19H816.38V408.14Z" fill="#FAFCFE"/>
<path d="M816.38 510.19H714.33V612.24H816.38V510.19Z" fill="#FAFCFE"/>
<path d="M714.33 510.19H612.28V612.24H714.33V510.19Z" fill="#FAFCFE"/>
<path d="M612.29 510.19H510.24V612.24H612.29V510.19Z" fill="#FAFCFE"/>
<path d="M510.24 510.19H408.19V612.24H510.24V510.19Z" fill="#FAFCFE"/>
<path d="M408.19 510.19H306.14V612.24H408.19V510.19Z" fill="#FAFCFE"/>
<path d="M306.14 510.19H204.09V612.24H306.14V510.19Z" fill="#FAFCFE"/>
<path d="M204.1 510.19H102.05V612.24H204.1V510.19Z" fill="#FAFCFE"/>
<path d="M102.05 510.19H0V612.24H102.05V510.19Z" fill="#FAFCFE"/>
<path d="M612 510V612C668.332 612 714 566.332 714 510H612Z" fill="#444BF7"/>
<path d="M612 204V102C555.668 102 510 147.668 510 204H612Z" fill="#444BF7"/>
<path d="M408.19 306.09H510.24C510.24 249.73 464.55 204.04 408.19 204.04V306.09Z" fill="#444BF7"/>
<path d="M102 204H204C203.99 147.668 158.332 102 102 102V204Z" fill="#444BF7"/>
<path d="M306 408H408C408 351.668 362.332 306 306 306V408Z" fill="#444BF7"/>
<path d="M714.33 204.05H816.38C816.38 147.69 770.69 102 714.33 102V204.05Z" fill="#444BF7"/>
<path d="M204.09 306.09H306.14C306.14 249.73 260.45 204.04 204.09 204.04V306.09Z" fill="#444BF7"/>
<path d="M612.01 306.09H509.97C509.97 362.45 555.66 408.14 612.02 408.14L612.01 306.09Z" fill="#444BF7"/>
<path d="M306.14 408.14H204.09C204.09 464.5 249.78 510.19 306.14 510.19V408.14Z" fill="#444BF7"/>
<path d="M408 408H306C306 464.332 351.668 510 408 510V408Z" fill="#444BF7"/>
<path d="M102.05 510.19H0C0 566.55 45.69 612.24 102.05 612.24V510.19Z" fill="#444BF7"/>
<path d="M102.05 306.09H0C0 362.45 45.69 408.14 102.05 408.14V306.09Z" fill="#444BF7"/>
<path d="M102 102H0C0 158.332 45.6676 204 102 204V102Z" fill="#444BF7"/>
<path d="M459.24 612.23C487.418 612.23 510.26 589.387 510.26 561.21C510.26 533.032 487.418 510.19 459.24 510.19C431.062 510.19 408.22 533.032 408.22 561.21C408.22 589.387 431.062 612.23 459.24 612.23Z" fill="#444BF7"/>
<path d="M509.69 306.1V408.14C509.69 379.96 498.27 354.45 479.8 335.99C461.34 317.52 435.83 306.1 407.65 306.1H509.69V306.1Z" fill="#444BF7"/>
<path d="M816 408V510C816 481.831 804.584 456.331 786.122 437.878C767.669 419.416 742.169 408 714 408H816Z" fill="#444BF7"/>
<path d="M102.05 204.05V306.1C158.41 306.1 204.1 260.41 204.1 204.05H102.05Z" fill="#011440"/>
<path d="M306.2 612.24V510.19C249.84 510.19 204.15 555.88 204.15 612.24H306.2Z" fill="#011440"/>
<path d="M612 306V408C668.332 408 714 362.332 714 306H612Z" fill="#011440"/>
<path d="M306.2 408.14V306.09C249.84 306.09 204.15 351.78 204.15 408.14H306.2Z" fill="#011440"/>
<path d="M612.28 612.24V510.19C555.92 510.19 510.23 555.88 510.23 612.24H612.28Z" fill="#011440"/>
<path d="M612.28 204.05H714.33C714.33 147.69 668.64 102 612.28 102V204.05Z" fill="#011440"/>
<path d="M714 510H816C816 453.668 770.332 408 714 408V510Z" fill="#011440"/>
<path d="M714 204V306C770.332 306 816 260.332 816 204H714Z" fill="#011440"/>
<path d="M102.05 408.14H204.1C204.1 351.78 158.41 306.09 102.05 306.09V408.14Z" fill="#011440"/>
<path d="M102.05 510.19H204.1C204.1 453.83 158.41 408.14 102.05 408.14V510.19Z" fill="#011440"/>
<path d="M408 408H510C510 351.668 464.332 306 408 306V408Z" fill="#011440"/>
<path d="M816 510H714C714 566.332 759.668 612 816 612V510Z" fill="#011440"/>
<path d="M612.28 408.14H510.24C510.24 464.5 555.93 510.19 612.29 510.19L612.28 408.14Z" fill="#011440"/>
<path d="M357.17 204.04C385.347 204.04 408.19 181.198 408.19 153.02C408.19 124.842 385.347 102 357.17 102C328.992 102 306.15 124.842 306.15 153.02C306.15 181.198 328.992 204.04 357.17 204.04Z" fill="#011440"/>
<path d="M204.09 102.01V204.05C204.09 175.87 192.67 150.36 174.2 131.9C155.74 113.43 130.23 102.01 102.05 102.01H204.09V102.01Z" fill="#011440"/>
<path d="M408.19 306.1V408.14C408.19 379.96 396.77 354.45 378.3 335.99C359.84 317.52 334.33 306.1 306.15 306.1H408.19V306.1Z" fill="#011440"/>
<path d="M510.26 204.05V306.09C510.26 277.91 498.84 252.4 480.37 233.94C461.91 215.47 436.4 204.05 408.22 204.05H510.26Z" fill="#011440"/>
<path d="M714 408V510C714 481.831 702.584 456.331 684.122 437.878C665.669 419.416 640.169 408 612 408H714Z" fill="#011440"/>
<path d="M510 102H612C583.831 102 558.331 113.416 539.878 131.878C521.416 150.331 510 175.831 510 204V102Z" fill="#011440"/>
<path d="M0 612.23V510.19C0 538.37 11.42 563.88 29.89 582.34C48.35 600.81 73.86 612.23 102.04 612.23H0Z" fill="#011440"/>
<path d="M408.19 612.23V510.19C408.19 538.37 396.77 563.88 378.3 582.34C359.84 600.81 334.33 612.23 306.15 612.23H408.19Z" fill="#011440"/>
<path d="M204.09 612.23V510.19C204.09 538.37 192.67 563.88 174.2 582.34C155.74 600.81 130.23 612.23 102.05 612.23H204.09Z" fill="#011440"/>
<path d="M102.05 306.09V204.05C45.69 204.05 0 249.74 0 306.09H102.05Z" fill="#C8D4FF"/>
<path d="M102.05 510.19V612.24C158.41 612.24 204.1 566.55 204.1 510.19H102.05Z" fill="#C8D4FF"/>
<path d="M306.14 510.19V612.24C362.5 612.24 408.19 566.55 408.19 510.19H306.14Z" fill="#C8D4FF"/>
<path d="M408.22 408.14V510.19C464.58 510.19 510.27 464.5 510.27 408.14H408.22Z" fill="#C8D4FF"/>
<path d="M408.19 306.09V204.05C351.83 204.05 306.14 249.74 306.14 306.1L408.19 306.09Z" fill="#C8D4FF"/>
<path d="M714.33 306.09V204.05C657.97 204.05 612.28 249.74 612.28 306.1L714.33 306.09Z" fill="#C8D4FF"/>
<path d="M612.28 510.19H714.33C714.33 453.83 668.64 408.14 612.28 408.14V510.19Z" fill="#C8D4FF"/>
<path d="M510.24 306.09H612.29C612.29 249.73 566.6 204.04 510.24 204.04V306.09Z" fill="#C8D4FF"/>
<path d="M204.15 204.05H306.2C306.2 147.69 260.51 102 204.15 102V204.05Z" fill="#C8D4FF"/>
<path d="M408.19 102V204.05C464.55 204.05 510.24 158.36 510.24 102H408.19Z" fill="#C8D4FF"/>
<path d="M714 408H816C816 351.668 770.332 306 714 306V408Z" fill="#C8D4FF"/>
<path d="M51.02 510.19C79.1976 510.19 102.04 487.347 102.04 459.17C102.04 430.992 79.1976 408.15 51.02 408.15C22.8424 408.15 0 430.992 0 459.17C0 487.347 22.8424 510.19 51.02 510.19Z" fill="#C8D4FF"/>
<path d="M204.09 408.15V510.19C204.09 482.01 192.67 456.5 174.2 438.04C155.74 419.57 130.23 408.15 102.05 408.15H204.09Z" fill="#C8D4FF"/>
<path d="M306.2 204.05V306.09C306.2 277.91 294.78 252.4 276.31 233.94C257.85 215.47 232.34 204.05 204.16 204.05H306.2Z" fill="#C8D4FF"/>
<path d="M816.37 102.01V204.05C816.37 175.87 804.95 150.36 786.48 131.9C768.02 113.43 742.51 102.01 714.33 102.01H816.37V102.01Z" fill="#C8D4FF"/>
<path d="M204.12 306.09V204.05C204.12 232.23 192.7 257.74 174.23 276.2C155.77 294.67 130.26 306.09 102.08 306.09H204.12V306.09Z" fill="#C8D4FF"/>
<path d="M612.38 0.189941H510.33V102.24H612.38V0.189941Z" fill="#FAFCFE"/>
<path d="M510.33 0.189941H408.28V102.24H510.33V0.189941Z" fill="#FAFCFE"/>
<path d="M408.29 0.189941H306.24V102.24H408.29V0.189941Z" fill="#FAFCFE"/>
<path d="M306.24 0.189941H204.19V102.24H306.24V0.189941Z" fill="#FAFCFE"/>
<path d="M204.19 0.189941H102.14V102.24H204.19V0.189941Z" fill="#FAFCFE"/>
<path d="M102.14 0.189941H0.0898438V102.24H102.14V0.189941Z" fill="#FAFCFE"/>
<path d="M408 0V102C464.332 102 510 56.3324 510 0H408Z" fill="#444BF7"/>
<path d="M255.24 102.23C283.418 102.23 306.26 79.3875 306.26 51.2099C306.26 23.0324 283.418 0.189941 255.24 0.189941C227.062 0.189941 204.22 23.0324 204.22 51.2099C204.22 79.3875 227.062 102.23 255.24 102.23Z" fill="#444BF7"/>
<path d="M102.2 102.24V0.189941C45.8399 0.189941 0.149902 45.8799 0.149902 102.24H102.2Z" fill="#011440"/>
<path d="M408.28 102.24V0.189941C351.92 0.189941 306.23 45.8799 306.23 102.24H408.28Z" fill="#011440"/>
<path d="M612 0H510C510 56.3324 555.668 102 612 102V0Z" fill="#011440"/>
<path d="M204.19 102.23V0.189941C204.19 28.3699 192.77 53.8799 174.3 72.3399C155.84 90.8099 130.33 102.23 102.15 102.23H204.19Z" fill="#011440"/>
<path d="M102.14 0.189941V102.24C158.5 102.24 204.19 56.5499 204.19 0.189941H102.14Z" fill="#C8D4FF"/>
</g>
</svg>
