<svg width="146" height="29" viewBox="0 0 146 29" fill="none" xmlns="http://www.w3.org/2000/svg">
<path d="M29 29L29 -1.26763e-06C12.9839 -5.67546e-07 -7.00085e-07 12.9839 0 29L29 29Z" fill="#444BF7"/>
<path d="M43.5 29C51.5081 29 58 22.5081 58 14.5C58 6.49187 51.5081 0 43.5 0C35.4919 0 29 6.49187 29 14.5C29 22.5081 35.4919 29 43.5 29Z" fill="#011436"/>
<path d="M76.9773 5.54545L80.4972 11.4943H80.6335L84.1705 5.54545H88.3381L83.0114 14.2727L88.4574 23H84.2131L80.6335 17.0426H80.4972L76.9176 23H72.6903L78.1534 14.2727L72.7926 5.54545H76.9773ZM103.89 9.90909L99.313 23H95.222L90.6453 9.90909H94.4806L97.1993 19.2756H97.3357L100.046 9.90909H103.89ZM112.348 23.2557C110.337 23.2557 108.752 22.6534 107.593 21.4489C106.433 20.2386 105.854 18.5937 105.854 16.5142C105.854 15.179 106.112 14 106.629 12.9773C107.152 11.9489 107.894 11.1534 108.854 10.5909C109.82 10.0227 110.936 9.73864 112.203 9.73864C113.078 9.73864 113.885 9.88068 114.624 10.1648C115.368 10.4432 116.019 10.8523 116.575 11.392C117.132 11.9261 117.567 12.6222 117.879 13.4801C118.198 14.3324 118.357 15.3011 118.357 16.3864V17.3835H109.442V17.392C109.442 18.3636 109.709 19.1335 110.243 19.7017C110.777 20.2642 111.499 20.5455 112.408 20.5455C113.022 20.5455 113.547 20.4176 113.985 20.1619C114.428 19.9006 114.74 19.5227 114.922 19.0284L118.28 19.25C118.019 20.4773 117.365 21.4517 116.32 22.1733C115.274 22.8949 113.95 23.2557 112.348 23.2557ZM109.442 15.1335H114.939C114.933 14.3494 114.681 13.7074 114.181 13.2074C113.686 12.7017 113.047 12.4489 112.263 12.4489C111.473 12.4489 110.814 12.7074 110.286 13.2244C109.763 13.7358 109.482 14.3722 109.442 15.1335ZM125.437 15.4318V23H121.806V9.90909H125.266V12.2188H125.42C125.721 11.446 126.212 10.8409 126.894 10.4034C127.576 9.96023 128.397 9.73864 129.357 9.73864C130.727 9.73864 131.82 10.1818 132.638 11.0682C133.462 11.9489 133.874 13.1477 133.874 14.6648V23H130.244V15.3125C130.249 14.5114 130.045 13.8864 129.63 13.4375C129.215 12.983 128.644 12.7557 127.917 12.7557C127.173 12.7557 126.573 12.9943 126.119 13.4716C125.67 13.9489 125.442 14.6023 125.437 15.4318ZM144.779 9.90909V12.6364H142.316V18.9773C142.316 19.4489 142.421 19.7812 142.631 19.9744C142.841 20.1619 143.145 20.2557 143.543 20.2557C143.725 20.2557 144.026 20.2159 144.446 20.1364L145.017 22.8381C144.398 23.0426 143.742 23.1563 143.049 23.179C141.702 23.2358 140.637 22.9432 139.853 22.3011C139.069 21.6591 138.679 20.7102 138.685 19.4545V12.6364H136.895V9.90909H138.685V6.77273H142.316V9.90909H144.779Z" fill="#011436"/>
</svg>
