<?xml version="1.0" encoding="utf-8"?>
<!-- Generator: Adobe Illustrator 23.1.0, SVG Export Plug-In . SVG Version: 6.00 Build 0)  -->
<svg version="1.1" id="Layer_1" xmlns="http://www.w3.org/2000/svg" xmlns:xlink="http://www.w3.org/1999/xlink" x="0px" y="0px"
	 viewBox="0 0 613 511" style="enable-background:new 0 0 613 511;" xml:space="preserve">
<style type="text/css">
	.st0{fill:#C8D4FF;}
	.st1{fill:#FAFCFE;}
	.st2{fill:#444BF7;}
	.st3{fill:#011440;}
</style>
<g>
	<path class="st0" d="M51,408c28.2,0,51-22.8,51-51c0-28.2-22.8-51-51-51S0,328.8,0,357C0,385.2,22.8,408,51,408z"/>
	<path class="st1" d="M510.2,102h-102v102.1h102V102z"/>
	<path class="st1" d="M510.2,204.1h-102v102.1h102V204.1z"/>
	<path class="st1" d="M408.2,204.1h-102v102.1h102V204.1z"/>
	<path class="st1" d="M204.1,306.1H102.1v102h102.1V306.1z"/>
	<path class="st2" d="M612,102V0c-56.3,0-102,45.7-102,102H612z"/>
	<path class="st2" d="M408.2,205.3l102,0c0-57-45.7-103.3-102.1-103.3L408.2,205.3z"/>
	<path class="st2" d="M306,306h102c0-56.3-45.7-102-102-102V306z"/>
	<path class="st2" d="M612,204.1H510c0,56.4,45.7,102.1,102.1,102.1L612,204.1z"/>
	<path class="st2" d="M306.1,306.1H204.1c0,56.4,45.7,102,102.1,102V306.1z"/>
	<path class="st2" d="M408,304.3H306c0,57.3,45.7,103.7,102,103.7V304.3z"/>
	<path class="st2" d="M102.1,408.2H0c0,56.4,45.7,102,102.1,102V408.2z"/>
	<path class="st2" d="M459.2,510.2c28.2,0,51-22.8,51-51c0-28.2-22.8-51-51-51c-28.2,0-51,22.8-51,51
		C408.2,487.4,431.1,510.2,459.2,510.2z"/>
	<path class="st2" d="M509.7,204.1v102c0-28.2-11.4-53.7-29.9-72.2c-18.5-18.5-44-29.9-72.1-29.9H509.7L509.7,204.1z"/>
	<path class="st3" d="M306.2,510.2v-102c-56.4,0-102.1,45.7-102.1,102H306.2z"/>
	<path class="st3" d="M306.2,306.1V204.1c-56.4,0-102.1,45.7-102.1,102.1H306.2z"/>
	<path class="st3" d="M612.3,510.2v-102c-56.4,0-102.1,45.7-102.1,102H612.3z"/>
	<path class="st2" d="M102.1,306.1h102.1c0-56.4-45.7-102.1-102.1-102.1V306.1z"/>
	<path class="st3" d="M102.1,408.2h102.1c0-56.4-45.7-102-102.1-102V408.2z"/>
	<path class="st3" d="M407.8,306H510c0-56.3-45.7-102-102.2-102V306z"/>
	<path class="st3" d="M612.3,306.1h-102c0,56.4,45.7,102,102,102L612.3,306.1z"/>
	<path class="st3" d="M357.2,102c28.2,0,51-22.8,51-51s-22.8-51-51-51c-28.2,0-51,22.8-51,51S329,102,357.2,102z"/>
	<path class="st3" d="M408.3,204.1v102.3c0-28.2-11.4-53.8-29.9-72.3c-18.5-18.5-44-30-72.2-30H408.3L408.3,204.1z"/>
	<path class="st3" d="M510.3,102v102c0-28.2-11.4-53.7-29.9-72.1c-18.5-18.5-44-29.9-72.1-29.9H510.3z"/>
	<path class="st0" d="M102.1,408.2v102c56.4,0,102.1-45.7,102.1-102H102.1z"/>
	<path class="st0" d="M306.1,408.2v102c56.4,0,102-45.7,102-102H306.1z"/>
	<path class="st0" d="M408.2,306.1v102c56.4,0,102-45.7,102-102H408.2z"/>
	<path class="st0" d="M408.2,204.1V102c-56.4,0-102,45.7-102,102.1L408.2,204.1z"/>
	<path class="st0" d="M510.2,204.1h102c0-56.4-45.7-102.1-102-102.1V204.1z"/>
	<path class="st0" d="M408.2,0V102c56.4,0,102-45.7,102-102.1H408.2z"/>
	<path class="st0" d="M204.1,306.1v102c0-28.2-11.4-53.7-29.9-72.1c-18.5-18.5-44-29.9-72.1-29.9H204.1z"/>
</g>
</svg>
